<?xml version="1.0" encoding="utf-8"?>
<!-- Generator: Adobe Illustrator 19.0.0, SVG Export Plug-In . SVG Version: 6.00 Build 0)  -->
<svg version="1.1" id="Layer_1" xmlns="http://www.w3.org/2000/svg" xmlns:xlink="http://www.w3.org/1999/xlink" x="0px" y="0px"
	 viewBox="0 0 500 500" style="enable-background:new 0 0 500 500;" xml:space="preserve">
<style type="text/css">
	.st0{fill:url(#lozenge_1_);}
	.st1{fill:#FFFFFF;}
</style>
<g id="XMLID_1_">
	<linearGradient id="lozenge_1_" gradientUnits="userSpaceOnUse" x1="323.497" y1="175.4245" x2="323.497" y2="325.6527">
		<stop  offset="0" style="stop-color:#E32E28"/>
		<stop  offset="1" style="stop-color:#BE2126"/>
	</linearGradient>
	<path id="lozenge_2_" class="st0" d="M428.6,207.8c0,0-2.1-14.7-8.5-21.2c-8.2-8.5-17.3-8.5-21.5-9c-30-2.2-75.1-2.2-75.1-2.2h-0.1
		c0,0-45,0-75.1,2.2c-4.2,0.5-13.3,0.5-21.5,9c-6.4,6.5-8.5,21.2-8.5,21.2s-2.1,17.3-2.1,34.6v16.2c0,17.3,2.1,34.6,2.1,34.6
		s2.1,14.7,8.5,21.2c8.2,8.5,18.9,8.2,23.7,9.1c17.2,1.6,72.9,2.1,72.9,2.1s45.1-0.1,75.1-2.2c4.2-0.5,13.3-0.5,21.5-9
		c6.4-6.5,8.5-21.2,8.5-21.2s2.1-17.3,2.1-34.6v-16.2C430.8,225.1,428.6,207.8,428.6,207.8z"/>
	<path id="u_2_" d="M205.1,297h-13.7v-7.9c-5.2,5.9-9.6,8.9-14.3,8.9c-4.2,0-7.1-2-8.6-5.6c-0.9-2.2-1.5-5.6-1.5-10.6v-57.5h13.7
		v53.9c0,3,0,4.3,0,5c0.3,2,1.2,2.8,2.9,2.8c2.6,0,5-2.3,7.9-6.3v-55.3h13.7V297z"/>
	<path id="o_2_" d="M157,248.1c0-7.8-1.6-13.6-4.3-17.2c-3.6-5-9.3-7-15.1-7c-6.5,0-11.5,2-15.1,7c-2.8,3.7-4.3,9.6-4.3,17.3l0,25.8
		c0,7.7,1.3,13,4.1,16.7c3.6,4.9,9.5,7.6,15.3,7.6c5.7,0,11.7-2.6,15.4-7.6c2.8-3.6,4-9,4-16.7V248.1z M143.3,275.4
		c0.7,7.2-1.5,10.8-5.7,10.8c-4.2,0-6.5-3.6-5.7-10.8v-28.7c-0.7-7.2,1.5-10.6,5.7-10.6c4.2,0,6.5,3.4,5.8,10.6L143.3,275.4z"/>
	<path id="y_2_" d="M103.1,257.5V297H88.7v-39.5c0,0-14.9-48.5-18-57.5h15.1L96,237.8l10-37.8h15.1L103.1,257.5z"/>
	<path id="e_1_" class="st1" d="M412.8,263.2l0-14.7c0-7.7-1.5-13.3-4.2-16.9c-3.6-4.9-8.8-7.5-15.4-7.5c-6.6,0-11.8,2.6-15.6,7.5
		c-2.8,3.6-4.4,9.6-4.4,17.2V274c0,7.6,1.8,13,4.5,16.6c3.8,4.9,8.9,7.4,15.7,7.4c6.8,0,12.1-2.6,15.7-7.8c1.6-2.3,2.6-4.9,3-7.8
		c0.1-1.3,0.5-4.3,0.5-8.5v-2h-13.7c0,5.2,0,8.3-0.1,9c-0.7,3.5-2.6,5.2-5.8,5.2c-4.5,0-6.4-3.3-6.3-10v-12.9H412.8z M386.9,244.5
		c0-6.7,1.8-8.5,6.2-8.5c4.3,0,6,2,6,8.6v7.8l-12.2,0V244.5z"/>
	<path id="b_1_" class="st1" d="M352.5,224c-4.8,0-9.5,2.9-13.7,8.1l0-31.4h-12.9V297h12.9l0-7.2c4.3,5.4,9.1,8.2,13.7,8.2
		c5.2,0,9-2.8,10.7-8.1c0.9-3,1.4-7.7,1.4-14.4v-28.7c0-6.8-0.9-11.5-1.7-14.3C361.2,227,357.7,224,352.5,224z M351,276.2
		c0,7.2-1.7,9.9-5.4,9.9c-2.1,0-4.6-1.1-6.8-3.3l0-43.6c2.2-2.1,4.6-3.3,6.8-3.3c3.8,0,5.4,2.1,5.4,9.3V276.2z"/>
	<path id="u_1_" class="st1" d="M315.1,297h-13.7v-7.9c-5.2,5.9-9.6,8.9-14.3,8.9c-4.2,0-7.1-2-8.6-5.6c-0.9-2.2-1.5-5.6-1.5-10.6
		v-56.8h13.7v53.2c0,3,0,4.3,0,5c0.3,2,1.2,2.8,2.9,2.8c2.6,0,5-2.3,7.9-6.3v-54.6h13.7V297z"/>
	<polygon id="T" class="st1" points="263.3,297 249,297 249,214.4 233.9,214.4 233.9,200.7 279.2,200.7 279.2,214.4 263.3,214.4 	
		"/>
</g>
</svg>
