<svg id="Layer_1" data-name="Layer 1" xmlns="http://www.w3.org/2000/svg" viewBox="0 0 280 300"><defs><style>.cls-1{fill:#069;}.cls-2{fill:#fff;}</style></defs><path class="cls-1" d="M234.14,171.42a5.34,5.34,0,0,1-5.33,5.35H186.57a5.35,5.35,0,0,1-5.34-5.35V128.58a5.35,5.35,0,0,1,5.34-5.35h42.24a5.34,5.34,0,0,1,5.33,5.35Z"/><path d="M45.86,134H53V159.6H65.53v6H45.86Z"/><path d="M75.41,136.32a3.55,3.55,0,0,1-3.84,3.56,3.57,3.57,0,1,1,3.84-3.56Zm-7.36,29.27v-22.9h7.12v22.9Z"/><path d="M79.43,150c0-2.86-.09-5.25-.19-7.31h6.19l.32,3.19h.14a8.24,8.24,0,0,1,7.08-3.7c4.68,0,8.19,3.13,8.19,9.88v13.53H94V152.9c0-3-1-5-3.6-5a3.91,3.91,0,0,0-3.66,2.67,5.27,5.27,0,0,0-.23,1.78v13.2H79.43Z"/><path d="M112.54,152.34h.09a31,31,0,0,1,1.64-2.76l4.64-6.89h8.57l-8.2,9.27,9.37,13.63h-8.76l-5.57-9.41-1.78,2.25v7.16h-7.12V132.34h7.12Z"/><path d="M134.17,156.41c.19,3,3.14,4.36,6.47,4.36a18.76,18.76,0,0,0,6.32-1l.94,4.83a21.76,21.76,0,0,1-8.29,1.45c-7.78,0-12.23-4.5-12.23-11.66,0-5.81,3.61-12.22,11.57-12.22,7.4,0,10.21,5.76,10.21,11.42a17.36,17.36,0,0,1-.23,2.81Zm8.39-4.87c0-1.73-.75-4.63-4-4.63-3,0-4.22,2.76-4.4,4.63Z"/><path d="M174.17,132.34v26.41c0,2.58.09,5.3.18,6.84H168l-.28-3.32h-.14a8,8,0,0,1-7.17,3.84c-5.43,0-9.78-4.64-9.78-11.76,0-7.73,4.77-12.22,10.25-12.22,2.86,0,5,1,6,2.58h.1V132.34Zm-7.12,20a6.1,6.1,0,0,0-.1-1.32,4.27,4.27,0,0,0-4.16-3.46c-3.28,0-4.92,2.9-4.92,6.51,0,3.88,1.92,6.32,4.87,6.32a4.21,4.21,0,0,0,4.17-3.42,9.63,9.63,0,0,0,.14-1.64Z"/><path class="cls-2" d="M198.45,136.32a3.55,3.55,0,0,1-3.84,3.56,3.57,3.57,0,1,1,3.84-3.56Zm-7.36,29.27v-22.9h7.12v22.9Z"/><path class="cls-2" d="M202.47,150c0-2.86-.09-5.25-.19-7.31h6.19l.32,3.19h.14a8.24,8.24,0,0,1,7.08-3.7c4.68,0,8.19,3.13,8.19,9.88v13.53h-7.12V152.9c0-3-1-5-3.6-5a3.91,3.91,0,0,0-3.66,2.67,5.27,5.27,0,0,0-.23,1.78v13.2h-7.12Z"/></svg>